<?xml version="1.0" encoding="UTF-8" standalone="no"?>
<svg width="15px" height="13px" viewBox="0 0 15 13" version="1.1" xmlns="http://www.w3.org/2000/svg" xmlns:xlink="http://www.w3.org/1999/xlink">
    <!-- Generator: Sketch 40.2 (33826) - http://www.bohemiancoding.com/sketch -->
    <title>arrow_connection</title>
    <desc>Created with Sketch.</desc>
    <defs></defs>
    <g id="Maine_page" stroke="none" stroke-width="1" fill="none" fill-rule="evenodd">
        <g transform="translate(-965.000000, -260.000000)" id="Gagarin_server">
            <g transform="translate(-2.000000, 231.000000)">
                <g id="Group-6" transform="translate(615.000000, 10.000000)">
                    <g id="Group-4" transform="translate(353.000000, 13.000000)">
                        <g id="arrow_connection" transform="translate(0.000000, 5.000000)">
                            <path d="M7.77817459,13.2781746 C10.8157407,13.2781746 13.2781746,10.8157407 13.2781746,7.77817459 C13.2781746,4.74060847 10.8157407,2.27817459 7.77817459,2.27817459 C4.74060847,2.27817459 2.27817459,4.74060847 2.27817459,7.77817459" id="Oval" stroke="#585858" stroke-linecap="round" transform="translate(7.778175, 7.778175) rotate(-315.000000) translate(-7.778175, -7.778175) "></path>
                            <g id="Group" transform="translate(0.000000, 6.000000)">
                                <path d="M0,2 L7,2" id="Line" stroke="#585858" stroke-linecap="round"></path>
                                <path d="M6.88772964,3.55613518 C6.3974501,3.80127495 6,3.55664682 6,2.9906311 L6,1.0093689 C6,0.451909848 6.39815903,0.199079514 6.88772964,0.443864822 L9.11227036,1.55613518 C9.6025499,1.80127495 9.60184097,2.19907951 9.11227036,2.44386482 L6.88772964,3.55613518 Z" id="Triangle" fill="#585858"></path>
                            </g>
                        </g>
                    </g>
                </g>
            </g>
        </g>
    </g>
</svg>