<?xml version="1.0" encoding="UTF-8" standalone="no"?>
<svg width="276px" height="74px" viewBox="0 0 276 74" version="1.1" xmlns="http://www.w3.org/2000/svg" xmlns:xlink="http://www.w3.org/1999/xlink">
    <!-- Generator: Sketch 40.2 (33826) - http://www.bohemiancoding.com/sketch -->
    <title>Logo</title>
    <desc>Created with Sketch.</desc>
    <defs>
        <polygon id="path-1" points="22.1686744 22.9600049 22.1686744 0.0959500348 0.0562541464 0.0959500348 0.0562541464 22.9600049 22.1686744 22.9600049"></polygon>
        <polygon id="path-3" points="45.3798524 46.9503083 0 46.9503083 0 0.0281329228 45.3798524 0.0281329228 45.3798524 46.9503083"></polygon>
    </defs>
    <g id="Symbols" stroke="none" stroke-width="1" fill="none" fill-rule="evenodd">
        <g id="Header_desctop" transform="translate(-360.000000, -14.000000)">
            <g id="Logo" transform="translate(360.000000, 14.000000)">
                <g id="Group-3">
                    <path d="M72.8026496,23.6100431 C72.8026496,19.7845245 69.7634482,16.6869221 66.1067485,16.6869221 C62.4069842,16.6869221 59.4117483,19.7845245 59.4117483,23.6100431 C59.4117483,27.3904745 62.4069842,30.5331642 66.1067485,30.5331642 C69.7634482,30.5331642 72.8026496,27.3904745 72.8026496,23.6100431 L72.8026496,23.6100431 Z M77.1629766,35.0420706 C77.1629766,41.3272636 72.1853315,46.474098 66.1067485,46.474098 C61.8345325,46.474098 58.0457563,44.0144235 56.152179,40.0519666 C55.623873,38.9136079 56.0642482,37.5926647 57.1650059,37.0458426 C58.2226992,36.4995795 59.5438248,36.954923 60.072311,38.0480082 C61.2179352,40.4620365 63.5079222,41.9651916 66.1067485,41.9651916 C69.7634482,41.9651916 72.7145385,38.9136079 72.8026496,35.1786363 L72.8026496,32.673502 C70.9083516,34.131011 68.6176438,35.0420706 66.1067485,35.0420706 C59.9842,35.0420706 55.0505203,29.8952362 55.0505203,23.6100431 C55.0505203,17.2793902 59.9842,12.1780157 66.1067485,12.1780157 C72.1853315,12.1780157 77.1629766,17.2793902 77.1629766,23.6100431 L77.1629766,35.0420706 Z" id="Fill-1" fill="#FEFEFE"></path>
                    <path d="M84.563442,23.6100431 C84.563442,27.3904745 87.558678,30.5331642 91.2584422,30.5331642 C94.9591074,30.5331642 97.9543434,27.3904745 97.9543434,23.6100431 C97.9543434,19.7845245 94.9591074,16.6869221 91.2584422,16.6869221 C87.558678,16.6869221 84.563442,19.7845245 84.563442,23.6100431 M80.2022141,23.6100431 C80.2022141,17.2793902 85.1798592,12.1780157 91.2584422,12.1780157 C97.3818917,12.1780157 102.31467,17.2793902 102.31467,23.6100431 C102.31467,29.8952362 97.3818917,35.0420706 91.2584422,35.0420706 C85.1798592,35.0420706 80.2022141,29.8952362 80.2022141,23.6100431" id="Fill-3" fill="#FEFEFE"></path>
                    <path d="M123.018881,23.5189744 C123.018881,19.6928969 120.023645,16.5958534 116.32298,16.5958534 C112.623216,16.5958534 109.62798,19.6928969 109.62798,23.4735146 L109.62798,23.5189744 C109.62798,27.3450519 112.623216,30.4420955 116.32298,30.4420955 C120.023645,30.4420955 123.018881,27.2994058 123.018881,23.5189744 M127.379208,23.5189744 C127.379208,29.8041675 122.446429,34.9510019 116.32298,34.9510019 C110.244397,34.9510019 105.266752,29.8041675 105.266752,23.5189744 L105.266752,23.4735146 L105.266752,3.06894789 C105.266752,1.83911065 106.236334,0.83750407 107.469348,0.83750407 C108.659118,0.83750407 109.62798,1.83911065 109.62798,3.06894789 L109.62798,14.4098694 C111.478312,12.9525467 113.812985,12.086947 116.32298,12.086947 C122.446429,12.086947 127.379208,17.1883215 127.379208,23.5189744" id="Fill-5" fill="#FEFEFE"></path>
                    <path d="M135.089576,21.3329904 L147.819194,21.3329904 C146.894478,18.1444683 144.075284,16.6869593 141.432312,16.6869593 C138.481221,16.6869593 136.014292,18.6456442 135.089576,21.3329904 M152.48854,23.6100804 C152.48854,24.8399176 151.519859,25.8418968 150.285943,25.8418968 L135.089576,25.8418968 C136.014292,28.5747029 138.481221,30.5330151 141.432312,30.5330151 C142.445139,30.5330151 144.251506,30.4420955 146.365991,29.0300463 C147.378818,28.3466585 148.74481,28.9845865 149.273116,30.0776717 C149.801603,31.2160303 149.229151,32.4004077 148.215423,33.0837956 C145.308298,35.0875676 143.062457,35.0421078 141.432312,35.0421078 C135.309763,35.0421078 130.376084,29.8952734 130.376084,23.6100804 C130.376084,17.2794275 135.309763,12.1780529 141.432312,12.1780529 C146.762221,12.1780529 152.48854,16.186156 152.48854,23.6100804" id="Fill-7" fill="#FEFEFE"></path>
                    <path d="M168.038073,14.4554782 C168.038073,15.6853155 167.069211,16.7325682 165.836377,16.7325682 L162.708163,16.7325682 L162.708163,32.8100678 C162.708163,34.0399051 161.739302,35.0875304 160.506287,35.0875304 C159.316518,35.0875304 158.347836,34.0399051 158.347836,32.8100678 L158.347836,16.7325682 L155.176378,16.7325682 C153.986608,16.7325682 153.017747,15.6853155 153.017747,14.4554782 C153.017747,13.225641 153.986608,12.2234755 155.176378,12.2234755 L158.347836,12.2234755 L158.347836,3.11455676 C158.347836,1.88471952 159.316518,0.882926631 160.506287,0.882926631 C161.739302,0.882926631 162.708163,1.88471952 162.708163,3.11455676 L162.708163,12.2234755 L165.836377,12.2234755 C167.069211,12.2234755 168.038073,13.225641 168.038073,14.4554782" id="Fill-9" fill="#FEFEFE"></path>
                    <path d="M202.044263,15.3205936 L195.437374,33.53899 C195.084209,34.4045897 194.247424,35.0421451 193.322708,35.0421451 C192.397992,35.0421451 191.560486,34.4500495 191.252188,33.53899 L186.671673,20.9227714 L182.134403,33.53899 C181.782139,34.4045897 180.944633,35.0421451 180.019917,35.0421451 C179.095202,35.0421451 178.258417,34.4500495 177.949397,33.53899 L171.342328,15.3205936 C170.902133,14.1367751 171.474585,12.8158319 172.620209,12.4057619 C173.721147,11.9504185 174.998127,12.5427003 175.395257,13.7265188 L180.019917,26.4338433 L184.601153,13.8176248 C184.82134,13.1800694 185.261716,12.6338063 185.922278,12.4057619 C186.142466,12.314656 186.362654,12.2690098 186.582841,12.2690098 L186.671673,12.2690098 L186.715819,12.2690098 L186.80375,12.2690098 L186.847895,12.2690098 L186.891861,12.2690098 L186.936006,12.2690098 L186.979972,12.2690098 L187.068083,12.2690098 C187.068083,12.2690098 187.068083,12.314656 187.112048,12.314656 L187.156194,12.314656 L187.200159,12.314656 C187.244125,12.314656 187.244125,12.314656 187.28827,12.3601158 L187.376381,12.3601158 C187.420347,12.4057619 187.420347,12.4057619 187.464312,12.4057619 C188.08091,12.6338063 188.56525,13.1800694 188.741472,13.8176248 L193.322708,26.4338433 L197.948089,13.7265188 C198.388464,12.5427003 199.621478,11.9504185 200.767283,12.4057619 C201.868041,12.8158319 202.440492,14.1367751 202.044263,15.3205936" id="Fill-11" fill="#FEFEFE"></path>
                    <path d="M208.079619,21.3329904 L220.809237,21.3329904 C219.884521,18.1444683 217.065327,16.6869593 214.422355,16.6869593 C211.471265,16.6869593 209.004335,18.6456442 208.079619,21.3329904 M225.478583,23.6100804 C225.478583,24.8399176 224.509902,25.8418968 223.275987,25.8418968 L208.079619,25.8418968 C209.004335,28.5747029 211.471265,30.5330151 214.422355,30.5330151 C215.435182,30.5330151 217.241549,30.4420955 219.356035,29.0300463 C220.368862,28.3466585 221.734673,28.9845865 222.26316,30.0776717 C222.791646,31.2160303 222.219194,32.4004077 221.205466,33.0837956 C218.298342,35.0875676 216.0525,35.0421078 214.422355,35.0421078 C208.299807,35.0421078 203.366127,29.8952734 203.366127,23.6100804 C203.366127,17.2794275 208.299807,12.1780529 214.422355,12.1780529 C219.752264,12.1780529 225.478583,16.186156 225.478583,23.6100804" id="Fill-13" fill="#FEFEFE"></path>
                    <path d="M233.276197,21.3329904 L246.005815,21.3329904 C245.081099,18.1444683 242.261905,16.6869593 239.618933,16.6869593 C236.667843,16.6869593 234.200913,18.6456442 233.276197,21.3329904 M250.675161,23.6100804 C250.675161,24.8399176 249.70648,25.8418968 248.472565,25.8418968 L233.276197,25.8418968 C234.200913,28.5747029 236.667843,30.5330151 239.618933,30.5330151 C240.63176,30.5330151 242.438127,30.4420955 244.552613,29.0300463 C245.56544,28.3466585 246.931432,28.9845865 247.459738,30.0776717 C247.988224,31.2160303 247.415772,32.4004077 246.402045,33.0837956 C243.49492,35.0875676 241.249078,35.0421078 239.618933,35.0421078 C233.496385,35.0421078 228.562705,29.8952734 228.562705,23.6100804 C228.562705,17.2794275 233.496385,12.1780529 239.618933,12.1780529 C244.948843,12.1780529 250.675161,16.186156 250.675161,23.6100804" id="Fill-15" fill="#FEFEFE"></path>
                    <g id="Group-19" transform="translate(253.702236, 12.082066)">
                        <mask id="mask-2" fill="white">
                            <use xlink:href="#path-1"></use>
                        </mask>
                        <g id="Clip-18"></g>
                        <path d="M22.1687104,11.5279775 L22.1687104,20.6825423 C22.1687104,21.9578394 21.2000292,22.9600049 19.9661137,22.9600049 C18.7770647,22.9600049 17.8083834,21.9578394 17.8083834,20.6825423 L17.8083834,11.5279775 C17.8083834,7.70245891 14.8131474,4.60485643 11.1124823,4.60485643 C7.41271807,4.60485643 4.41748208,7.70245891 4.41748208,11.5279775 L4.41748208,20.6825423 C4.41748208,21.9578394 3.44862063,22.9600049 2.21488539,22.9600049 C1.02583634,22.9600049 0.0562541464,21.9578394 0.0562541464,20.6825423 L0.0562541464,11.5279775 C0.0562541464,5.1973246 5.03389923,0.0959500348 11.1124823,0.0959500348 C17.1910653,0.0959500348 22.1687104,5.1973246 22.1687104,11.5279775" id="Fill-17" fill="#FEFEFE" mask="url(#mask-2)"></path>
                    </g>
                    <path d="M30.5198925,21.9016854 L18.5895809,21.9016854 C17.4147666,21.9016854 16.4626624,20.9172194 16.4626624,19.7024733 C16.4626624,18.4875409 17.4147666,17.5030749 18.5895809,17.5030749 L29.381656,17.5030749 L31.2132492,14.6629539 C31.8646225,13.6525907 33.1848471,13.3794592 34.1627179,14.0529725 C35.1402283,14.7264859 35.4045615,16.0925163 34.7526477,17.1026931 L32.2896819,20.9222498 C31.8948938,21.5339079 31.2310876,21.9016854 30.5198925,21.9016854" id="Fill-20" fill="#FEFEFE"></path>
                    <path d="M12.3947417,33.6111854 C11.9893226,33.6111854 11.5797593,33.4917602 11.2170444,33.2417312 C10.239534,32.5682178 9.97520075,31.2021874 10.6271146,30.1920106 L13.0900804,26.3715224 C13.4843279,25.7598642 14.1486746,25.3922731 14.8598697,25.3922731 L26.7901814,25.3922731 C27.9649957,25.3922731 28.9170998,26.3767391 28.9170998,27.5914852 C28.9170998,28.8062312 27.9649957,29.7906972 26.7901814,29.7906972 L15.9981063,29.7906972 L14.1665131,32.6317498 C13.7569497,33.2676284 13.0823324,33.6111854 12.3947417,33.6111854" id="Fill-22" fill="#FEFEFE"></path>
                    <g id="Group-26" transform="translate(0.000000, 0.158178)">
                        <mask id="mask-4" fill="white">
                            <use xlink:href="#path-3"></use>
                        </mask>
                        <g id="Clip-25"></g>
                        <path d="M22.6898991,4.4266502 C12.5243316,4.4266502 4.25396306,12.9781272 4.25396306,23.4892206 C4.25396306,34.000314 12.5243316,42.551791 22.6898991,42.551791 C32.8554667,42.551791 41.1258352,34.000314 41.1258352,23.4892206 C41.1258352,12.9781272 32.8554667,4.4266502 22.6898991,4.4266502 M22.6898991,46.9504014 C10.1788472,46.9504014 -5.4055874e-05,36.425521 -5.4055874e-05,23.4892206 C-5.4055874e-05,10.5529202 10.1788472,0.0280397674 22.6898991,0.0280397674 C35.2009511,0.0280397674 45.3798524,10.5529202 45.3798524,23.4892206 C45.3798524,36.425521 35.2009511,46.9504014 22.6898991,46.9504014" id="Fill-24" fill="#FEFEFE" mask="url(#mask-4)"></path>
                    </g>
                </g>
                <path d="M62.3625,59.652 C62.9641697,60.0066684 63.4074986,60.4658305 63.6925,61.0295 C63.9775014,61.5931695 64.12,62.20433 64.12,62.863 L64.12,68.24 C64.12,68.4806679 64.0345009,68.6833325 63.8635,68.848 C63.6924991,69.0126675 63.4866679,69.095 63.246,69.095 C63.0053321,69.095 62.8026675,69.0126675 62.638,68.848 C62.4733325,68.6833325 62.391,68.4806679 62.391,68.24 L62.391,67.746 C61.453662,68.7086715 60.2630072,69.19 58.819,69.19 C58.2616639,69.19 57.7455024,69.0760011 57.2705,68.848 C56.7954976,68.6199989 56.4186681,68.2875022 56.14,67.8505 C55.8613319,67.4134978 55.722,66.9100028 55.722,66.34 C55.722,65.402662 56.0924963,64.6553361 56.8335,64.098 C57.5745037,63.5406639 58.6606595,63.262 60.092,63.262 L62.391,63.262 L62.391,63.11 C62.391,62.2739958 62.1851687,61.6723352 61.7735,61.305 C61.3618313,60.9376648 60.7190044,60.754 59.845,60.754 C59.3636643,60.754 58.9361685,60.7919996 58.5625,60.868 C58.1888315,60.9440004 57.7740023,61.0579992 57.318,61.21 C57.2166662,61.2353335 57.1343336,61.248 57.071,61.248 C56.880999,61.248 56.716334,61.178334 56.577,61.039 C56.437666,60.899666 56.368,60.7286677 56.368,60.526 C56.368,60.1839983 56.532665,59.943334 56.862,59.804 C57.938672,59.3479977 59.0343278,59.12 60.149,59.12 C61.0230044,59.12 61.7608303,59.2973316 62.3625,59.652 L62.3625,59.652 Z M61.08,67.2615 C61.5993359,66.9891653 62.0363316,66.6503354 62.391,66.245 L62.391,64.649 L60.32,64.649 C58.4073238,64.649 57.451,65.1493283 57.451,66.15 C57.451,66.6060023 57.6061651,66.9733319 57.9165,67.252 C58.2268349,67.5306681 58.7429964,67.67 59.465,67.67 C60.0223361,67.67 60.5606641,67.5338347 61.08,67.2615 L61.08,67.2615 Z M74.304,60.564 L74.304,55.909 C74.304,55.6556654 74.3894991,55.4466675 74.5605,55.282 C74.7315009,55.1173325 74.9373321,55.035 75.178,55.035 C75.4186679,55.035 75.6213325,55.1204991 75.786,55.2915 C75.9506675,55.4625009 76.033,55.6683321 76.033,55.909 L76.033,68.24 C76.033,68.4806679 75.9506675,68.6833325 75.786,68.848 C75.6213325,69.0126675 75.4186679,69.095 75.178,69.095 C74.9373321,69.095 74.7315009,69.0126675 74.5605,68.848 C74.3894991,68.6833325 74.304,68.4806679 74.304,68.24 L74.304,67.746 C73.3793287,68.7086715 72.2963395,69.19 71.055,69.19 C70.2696627,69.19 69.5255035,68.990502 68.8225,68.5915 C68.1194965,68.192498 67.5495022,67.6098372 67.1125,66.8435 C66.6754978,66.0771628 66.457,65.1810051 66.457,64.155 C66.457,63.1289949 66.6754978,62.2328372 67.1125,61.4665 C67.5495022,60.7001628 68.1194965,60.117502 68.8225,59.7185 C69.5255035,59.319498 70.2696627,59.12 71.055,59.12 C72.2963395,59.12 73.3793287,59.6013285 74.304,60.564 L74.304,60.564 Z M72.9455,67.1855 C73.4585026,66.925832 73.9113314,66.5806688 74.304,66.15 L74.304,62.16 C73.9113314,61.7293312 73.4585026,61.384168 72.9455,61.1245 C72.4324974,60.864832 71.8846696,60.735 71.302,60.735 C70.364662,60.735 69.6110028,61.0326637 69.041,61.628 C68.4709971,62.2233363 68.186,63.0656612 68.186,64.155 C68.186,65.2443388 68.4709971,66.0866637 69.041,66.682 C69.6110028,67.2773363 70.364662,67.575 71.302,67.575 C71.8846696,67.575 72.4324974,67.445168 72.9455,67.1855 L72.9455,67.1855 Z M92.1735,59.652 C92.6485024,60.0066684 92.9999989,60.4626639 93.228,61.02 C93.4560011,61.5773361 93.57,62.159997 93.57,62.768 L93.57,68.24 C93.57,68.4806679 93.4845009,68.6833325 93.3135,68.848 C93.1424991,69.0126675 92.9366679,69.095 92.696,69.095 C92.4553321,69.095 92.2526675,69.0126675 92.088,68.848 C91.9233325,68.6833325 91.841,68.4806679 91.841,68.24 L91.841,63.11 C91.841,62.2866625 91.6953348,61.6818353 91.404,61.2955 C91.1126652,60.9091647 90.6123369,60.716 89.903,60.716 C89.2569968,60.716 88.7218355,60.8838317 88.2975,61.2195 C87.8731645,61.5551683 87.496335,61.9953306 87.167,62.54 L87.167,68.24 C87.167,68.4806679 87.0815009,68.6833325 86.9105,68.848 C86.7394991,69.0126675 86.5336679,69.095 86.293,69.095 C86.0523321,69.095 85.8496675,69.0126675 85.685,68.848 C85.5203325,68.6833325 85.438,68.4806679 85.438,68.24 L85.438,63.11 C85.438,62.2866625 85.2923348,61.6818353 85.001,61.2955 C84.7096652,60.9091647 84.2093369,60.716 83.5,60.716 C82.8539968,60.716 82.3188355,60.8838317 81.8945,61.2195 C81.4701645,61.5551683 81.093335,61.9953306 80.764,62.54 L80.764,68.24 C80.764,68.4806679 80.6785009,68.6833325 80.5075,68.848 C80.3364991,69.0126675 80.1306679,69.095 79.89,69.095 C79.6493321,69.095 79.4466675,69.0126675 79.282,68.848 C79.1173325,68.6833325 79.035,68.4806679 79.035,68.24 L79.035,60.089 C79.035,59.8483321 79.1173325,59.6425009 79.282,59.4715 C79.4466675,59.3004991 79.6493321,59.215 79.89,59.215 C80.1306679,59.215 80.3364991,59.3004991 80.5075,59.4715 C80.6785009,59.6425009 80.764,59.8483321 80.764,60.089 L80.764,60.868 C81.1186684,60.3613308 81.5461642,59.943335 82.0465,59.614 C82.5468358,59.284665 83.195996,59.12 83.994,59.12 C84.7033369,59.12 85.3113308,59.3099981 85.818,59.69 C86.3246692,60.0700019 86.6856656,60.5323306 86.901,61.077 C87.6863373,59.7723268 88.8516589,59.12 90.397,59.12 C91.1063369,59.12 91.6984976,59.2973316 92.1735,59.652 L92.1735,59.652 Z M98.472,56.365 C98.472,56.6310013 98.3770009,56.858999 98.187,57.049 C97.996999,57.2390009 97.7690013,57.334 97.503,57.334 L97.389,57.334 C97.1229987,57.334 96.8950009,57.2390009 96.705,57.049 C96.514999,56.858999 96.42,56.6310013 96.42,56.365 L96.42,56.289 C96.42,56.0229987 96.514999,55.7950009 96.705,55.605 C96.8950009,55.414999 97.1229987,55.32 97.389,55.32 L97.503,55.32 C97.7690013,55.32 97.996999,55.414999 98.187,55.605 C98.3770009,55.7950009 98.472,56.0229987 98.472,56.289 L98.472,56.365 Z M98.054,59.462 C98.2186675,59.6266675 98.301,59.8356654 98.301,60.089 L98.301,68.24 C98.301,68.4806679 98.2155009,68.6833325 98.0445,68.848 C97.8734991,69.0126675 97.6676679,69.095 97.427,69.095 C97.1863321,69.095 96.9836675,69.0126675 96.819,68.848 C96.6543325,68.6833325 96.572,68.4806679 96.572,68.24 L96.572,60.089 C96.572,59.8483321 96.6543325,59.6425009 96.819,59.4715 C96.9836675,59.3004991 97.1863321,59.215 97.427,59.215 C97.6803346,59.215 97.8893325,59.2973325 98.054,59.462 L98.054,59.462 Z M108.4565,59.614 C108.969503,59.943335 109.362165,60.3929971 109.6345,60.963 C109.906835,61.5330028 110.043,62.1599966 110.043,62.844 L110.043,68.24 C110.043,68.4806679 109.957501,68.6833325 109.7865,68.848 C109.615499,69.0126675 109.409668,69.095 109.169,69.095 C108.928332,69.095 108.725667,69.0126675 108.561,68.848 C108.396333,68.6833325 108.314,68.4806679 108.314,68.24 L108.314,63.034 C108.314,61.4886589 107.61734,60.716 106.224,60.716 C105.590663,60.716 105.023836,60.880665 104.5235,61.21 C104.023164,61.539335 103.551336,61.9826639 103.108,62.54 L103.108,68.24 C103.108,68.4806679 103.022501,68.6833325 102.8515,68.848 C102.680499,69.0126675 102.474668,69.095 102.234,69.095 C101.993332,69.095 101.790667,69.0126675 101.626,68.848 C101.461333,68.6833325 101.379,68.4806679 101.379,68.24 L101.379,60.089 C101.379,59.8483321 101.461333,59.6425009 101.626,59.4715 C101.790667,59.3004991 101.993332,59.215 102.234,59.215 C102.474668,59.215 102.680499,59.3004991 102.8515,59.4715 C103.022501,59.6425009 103.108,59.8483321 103.108,60.089 L103.108,60.868 C103.589336,60.3359973 104.108664,59.9116682 104.666,59.595 C105.223336,59.2783317 105.881996,59.12 106.642,59.12 C107.33867,59.12 107.943497,59.284665 108.4565,59.614 L108.4565,59.614 Z M119.619,67.746 L119.619,72.591 C119.619,72.8443346 119.536667,73.0533325 119.372,73.218 C119.207333,73.3826675 118.998335,73.465 118.745,73.465 C118.504332,73.465 118.301667,73.3795009 118.137,73.2085 C117.972333,73.0374991 117.89,72.8316679 117.89,72.591 L117.89,60.07 C117.89,59.8293321 117.972333,59.6266675 118.137,59.462 C118.301667,59.2973325 118.504332,59.215 118.745,59.215 C118.985668,59.215 119.191499,59.2973325 119.3625,59.462 C119.533501,59.6266675 119.619,59.8293321 119.619,60.07 L119.619,60.564 C120.543671,59.6013285 121.62666,59.12 122.868,59.12 C123.653337,59.12 124.397496,59.319498 125.1005,59.7185 C125.803504,60.117502 126.373498,60.7001628 126.8105,61.4665 C127.247502,62.2328372 127.466,63.1289949 127.466,64.155 C127.466,65.1810051 127.247502,66.0771628 126.8105,66.8435 C126.373498,67.6098372 125.803504,68.192498 125.1005,68.5915 C124.397496,68.990502 123.653337,69.19 122.868,69.19 C121.62666,69.19 120.543671,68.7086715 119.619,67.746 L119.619,67.746 Z M120.9775,61.1245 C120.464497,61.384168 120.011669,61.7293312 119.619,62.16 L119.619,66.15 C120.011669,66.5806688 120.464497,66.925832 120.9775,67.1855 C121.490503,67.445168 122.03833,67.575 122.621,67.575 C123.558338,67.575 124.311997,67.2773363 124.882,66.682 C125.452003,66.0866637 125.737,65.2443388 125.737,64.155 C125.737,63.0656612 125.452003,62.2233363 124.882,61.628 C124.311997,61.0326637 123.558338,60.735 122.621,60.735 C122.03833,60.735 121.490503,60.864832 120.9775,61.1245 L120.9775,61.1245 Z M135.7405,59.652 C136.34217,60.0066684 136.785499,60.4658305 137.0705,61.0295 C137.355501,61.5931695 137.498,62.20433 137.498,62.863 L137.498,68.24 C137.498,68.4806679 137.412501,68.6833325 137.2415,68.848 C137.070499,69.0126675 136.864668,69.095 136.624,69.095 C136.383332,69.095 136.180667,69.0126675 136.016,68.848 C135.851333,68.6833325 135.769,68.4806679 135.769,68.24 L135.769,67.746 C134.831662,68.7086715 133.641007,69.19 132.197,69.19 C131.639664,69.19 131.123502,69.0760011 130.6485,68.848 C130.173498,68.6199989 129.796668,68.2875022 129.518,67.8505 C129.239332,67.4134978 129.1,66.9100028 129.1,66.34 C129.1,65.402662 129.470496,64.6553361 130.2115,64.098 C130.952504,63.5406639 132.03866,63.262 133.47,63.262 L135.769,63.262 L135.769,63.11 C135.769,62.2739958 135.563169,61.6723352 135.1515,61.305 C134.739831,60.9376648 134.097004,60.754 133.223,60.754 C132.741664,60.754 132.314169,60.7919996 131.9405,60.868 C131.566831,60.9440004 131.152002,61.0579992 130.696,61.21 C130.594666,61.2353335 130.512334,61.248 130.449,61.248 C130.258999,61.248 130.094334,61.178334 129.955,61.039 C129.815666,60.899666 129.746,60.7286677 129.746,60.526 C129.746,60.1839983 129.910665,59.943334 130.24,59.804 C131.316672,59.3479977 132.412328,59.12 133.527,59.12 C134.401004,59.12 135.13883,59.2973316 135.7405,59.652 L135.7405,59.652 Z M134.458,67.2615 C134.977336,66.9891653 135.414332,66.6503354 135.769,66.245 L135.769,64.649 L133.698,64.649 C131.785324,64.649 130.829,65.1493283 130.829,66.15 C130.829,66.6060023 130.984165,66.9733319 131.2945,67.252 C131.604835,67.5306681 132.120996,67.67 132.843,67.67 C133.400336,67.67 133.938664,67.5338347 134.458,67.2615 L134.458,67.2615 Z M147.5015,59.614 C148.014503,59.943335 148.407165,60.3929971 148.6795,60.963 C148.951835,61.5330028 149.088,62.1599966 149.088,62.844 L149.088,68.24 C149.088,68.4806679 149.002501,68.6833325 148.8315,68.848 C148.660499,69.0126675 148.454668,69.095 148.214,69.095 C147.973332,69.095 147.770667,69.0126675 147.606,68.848 C147.441333,68.6833325 147.359,68.4806679 147.359,68.24 L147.359,63.034 C147.359,61.4886589 146.66234,60.716 145.269,60.716 C144.635663,60.716 144.068836,60.880665 143.5685,61.21 C143.068164,61.539335 142.596336,61.9826639 142.153,62.54 L142.153,68.24 C142.153,68.4806679 142.067501,68.6833325 141.8965,68.848 C141.725499,69.0126675 141.519668,69.095 141.279,69.095 C141.038332,69.095 140.835667,69.0126675 140.671,68.848 C140.506333,68.6833325 140.424,68.4806679 140.424,68.24 L140.424,60.089 C140.424,59.8483321 140.506333,59.6425009 140.671,59.4715 C140.835667,59.3004991 141.038332,59.215 141.279,59.215 C141.519668,59.215 141.725499,59.3004991 141.8965,59.4715 C142.067501,59.6425009 142.153,59.8483321 142.153,60.089 L142.153,60.868 C142.634336,60.3359973 143.153664,59.9116682 143.711,59.595 C144.268336,59.2783317 144.926996,59.12 145.687,59.12 C146.38367,59.12 146.988497,59.284665 147.5015,59.614 L147.5015,59.614 Z M159.937,67.119 C160.089001,67.258334 160.165,67.4356656 160.165,67.651 C160.165,67.9296681 160.000335,68.163999 159.671,68.354 C159.176998,68.6326681 158.689336,68.841666 158.208,68.981 C157.726664,69.120334 157.106004,69.19 156.346,69.19 C154.800659,69.19 153.594171,68.7498377 152.7265,67.8695 C151.858829,66.9891623 151.425,65.751008 151.425,64.155 C151.425,63.2556622 151.589665,62.4260038 151.919,61.666 C152.248335,60.9059962 152.754997,60.291669 153.439,59.823 C154.123003,59.354331 154.965328,59.12 155.966,59.12 C156.903338,59.12 157.713997,59.3384978 158.398,59.7755 C159.082003,60.2125022 159.601332,60.795163 159.956,61.5235 C160.310668,62.251837 160.488,63.0466624 160.488,63.908 C160.488,64.1486679 160.408834,64.3513325 160.2505,64.516 C160.092166,64.6806675 159.880001,64.763 159.614,64.763 L153.173,64.763 C153.274334,65.6496711 153.603664,66.3399975 154.161,66.834 C154.718336,67.3280025 155.497328,67.575 156.498,67.575 C157.030003,67.575 157.495498,67.5243338 157.8945,67.423 C158.293502,67.3216662 158.682998,67.1760009 159.063,66.986 C159.164334,66.9353331 159.278333,66.91 159.405,66.91 C159.607668,66.91 159.784999,66.979666 159.937,67.119 L159.937,67.119 Z M154.693,60.8775 C154.274998,61.0738343 153.926668,61.3809979 153.648,61.799 C153.369332,62.2170021 153.211,62.7363302 153.173,63.357 L158.778,63.357 C158.74,62.7363302 158.578501,62.2170021 158.2935,61.799 C158.008499,61.3809979 157.657002,61.0738343 157.239,60.8775 C156.820998,60.6811657 156.396669,60.583 155.966,60.583 C155.535331,60.583 155.111002,60.6811657 154.693,60.8775 L154.693,60.8775 Z M164.459,55.282 C164.623667,55.4466675 164.706,55.6556654 164.706,55.909 L164.706,68.24 C164.706,68.4806679 164.620501,68.6833325 164.4495,68.848 C164.278499,69.0126675 164.072668,69.095 163.832,69.095 C163.591332,69.095 163.388667,69.0126675 163.224,68.848 C163.059333,68.6833325 162.977,68.4806679 162.977,68.24 L162.977,55.909 C162.977,55.6683321 163.059333,55.4625009 163.224,55.2915 C163.388667,55.1204991 163.591332,55.035 163.832,55.035 C164.085335,55.035 164.294333,55.1173325 164.459,55.282 L164.459,55.282 Z" id="admin-panel" fill="#FFFFFF"></path>
            </g>
        </g>
    </g>
</svg>