<?xml version="1.0" encoding="UTF-8" standalone="no"?>
<svg width="276px" height="60px" viewBox="0 0 276 60" version="1.1" xmlns="http://www.w3.org/2000/svg" xmlns:xlink="http://www.w3.org/1999/xlink">
    <!-- Generator: Sketch 40.2 (33826) - http://www.bohemiancoding.com/sketch -->
    <title>Logo</title>
    <desc>Created with Sketch.</desc>
    <defs>
        <polygon id="path-1" points="22.1686744 22.9600049 22.1686744 0.0959500348 0.0562541464 0.0959500348 0.0562541464 22.9600049 22.1686744 22.9600049"></polygon>
        <polygon id="path-3" points="45.3798524 46.9503083 0 46.9503083 0 0.0281329228 45.3798524 0.0281329228 45.3798524 46.9503083"></polygon>
    </defs>
    <g id="Symbols" stroke="none" stroke-width="1" fill="none" fill-rule="evenodd">
        <g id="Header_desctop" transform="translate(-360.000000, -14.000000)">
            <g id="Logo" transform="translate(360.000000, 14.000000)">
                <g id="Group-3">
                    <path d="M72.8026496,23.6100431 C72.8026496,19.7845245 69.7634482,16.6869221 66.1067485,16.6869221 C62.4069842,16.6869221 59.4117483,19.7845245 59.4117483,23.6100431 C59.4117483,27.3904745 62.4069842,30.5331642 66.1067485,30.5331642 C69.7634482,30.5331642 72.8026496,27.3904745 72.8026496,23.6100431 L72.8026496,23.6100431 Z M77.1629766,35.0420706 C77.1629766,41.3272636 72.1853315,46.474098 66.1067485,46.474098 C61.8345325,46.474098 58.0457563,44.0144235 56.152179,40.0519666 C55.623873,38.9136079 56.0642482,37.5926647 57.1650059,37.0458426 C58.2226992,36.4995795 59.5438248,36.954923 60.072311,38.0480082 C61.2179352,40.4620365 63.5079222,41.9651916 66.1067485,41.9651916 C69.7634482,41.9651916 72.7145385,38.9136079 72.8026496,35.1786363 L72.8026496,32.673502 C70.9083516,34.131011 68.6176438,35.0420706 66.1067485,35.0420706 C59.9842,35.0420706 55.0505203,29.8952362 55.0505203,23.6100431 C55.0505203,17.2793902 59.9842,12.1780157 66.1067485,12.1780157 C72.1853315,12.1780157 77.1629766,17.2793902 77.1629766,23.6100431 L77.1629766,35.0420706 Z" id="Fill-1" fill="#0163b4"></path>
                    <path d="M84.563442,23.6100431 C84.563442,27.3904745 87.558678,30.5331642 91.2584422,30.5331642 C94.9591074,30.5331642 97.9543434,27.3904745 97.9543434,23.6100431 C97.9543434,19.7845245 94.9591074,16.6869221 91.2584422,16.6869221 C87.558678,16.6869221 84.563442,19.7845245 84.563442,23.6100431 M80.2022141,23.6100431 C80.2022141,17.2793902 85.1798592,12.1780157 91.2584422,12.1780157 C97.3818917,12.1780157 102.31467,17.2793902 102.31467,23.6100431 C102.31467,29.8952362 97.3818917,35.0420706 91.2584422,35.0420706 C85.1798592,35.0420706 80.2022141,29.8952362 80.2022141,23.6100431" id="Fill-3" fill="#0163b4"></path>
                    <path d="M123.018881,23.5189744 C123.018881,19.6928969 120.023645,16.5958534 116.32298,16.5958534 C112.623216,16.5958534 109.62798,19.6928969 109.62798,23.4735146 L109.62798,23.5189744 C109.62798,27.3450519 112.623216,30.4420955 116.32298,30.4420955 C120.023645,30.4420955 123.018881,27.2994058 123.018881,23.5189744 M127.379208,23.5189744 C127.379208,29.8041675 122.446429,34.9510019 116.32298,34.9510019 C110.244397,34.9510019 105.266752,29.8041675 105.266752,23.5189744 L105.266752,23.4735146 L105.266752,3.06894789 C105.266752,1.83911065 106.236334,0.83750407 107.469348,0.83750407 C108.659118,0.83750407 109.62798,1.83911065 109.62798,3.06894789 L109.62798,14.4098694 C111.478312,12.9525467 113.812985,12.086947 116.32298,12.086947 C122.446429,12.086947 127.379208,17.1883215 127.379208,23.5189744" id="Fill-5" fill="#0163b4"></path>
                    <path d="M135.089576,21.3329904 L147.819194,21.3329904 C146.894478,18.1444683 144.075284,16.6869593 141.432312,16.6869593 C138.481221,16.6869593 136.014292,18.6456442 135.089576,21.3329904 M152.48854,23.6100804 C152.48854,24.8399176 151.519859,25.8418968 150.285943,25.8418968 L135.089576,25.8418968 C136.014292,28.5747029 138.481221,30.5330151 141.432312,30.5330151 C142.445139,30.5330151 144.251506,30.4420955 146.365991,29.0300463 C147.378818,28.3466585 148.74481,28.9845865 149.273116,30.0776717 C149.801603,31.2160303 149.229151,32.4004077 148.215423,33.0837956 C145.308298,35.0875676 143.062457,35.0421078 141.432312,35.0421078 C135.309763,35.0421078 130.376084,29.8952734 130.376084,23.6100804 C130.376084,17.2794275 135.309763,12.1780529 141.432312,12.1780529 C146.762221,12.1780529 152.48854,16.186156 152.48854,23.6100804" id="Fill-7" fill="#0163b4"></path>
                    <path d="M168.038073,14.4554782 C168.038073,15.6853155 167.069211,16.7325682 165.836377,16.7325682 L162.708163,16.7325682 L162.708163,32.8100678 C162.708163,34.0399051 161.739302,35.0875304 160.506287,35.0875304 C159.316518,35.0875304 158.347836,34.0399051 158.347836,32.8100678 L158.347836,16.7325682 L155.176378,16.7325682 C153.986608,16.7325682 153.017747,15.6853155 153.017747,14.4554782 C153.017747,13.225641 153.986608,12.2234755 155.176378,12.2234755 L158.347836,12.2234755 L158.347836,3.11455676 C158.347836,1.88471952 159.316518,0.882926631 160.506287,0.882926631 C161.739302,0.882926631 162.708163,1.88471952 162.708163,3.11455676 L162.708163,12.2234755 L165.836377,12.2234755 C167.069211,12.2234755 168.038073,13.225641 168.038073,14.4554782" id="Fill-9" fill="#0163b4"></path>
                    <path d="M202.044263,15.3205936 L195.437374,33.53899 C195.084209,34.4045897 194.247424,35.0421451 193.322708,35.0421451 C192.397992,35.0421451 191.560486,34.4500495 191.252188,33.53899 L186.671673,20.9227714 L182.134403,33.53899 C181.782139,34.4045897 180.944633,35.0421451 180.019917,35.0421451 C179.095202,35.0421451 178.258417,34.4500495 177.949397,33.53899 L171.342328,15.3205936 C170.902133,14.1367751 171.474585,12.8158319 172.620209,12.4057619 C173.721147,11.9504185 174.998127,12.5427003 175.395257,13.7265188 L180.019917,26.4338433 L184.601153,13.8176248 C184.82134,13.1800694 185.261716,12.6338063 185.922278,12.4057619 C186.142466,12.314656 186.362654,12.2690098 186.582841,12.2690098 L186.671673,12.2690098 L186.715819,12.2690098 L186.80375,12.2690098 L186.847895,12.2690098 L186.891861,12.2690098 L186.936006,12.2690098 L186.979972,12.2690098 L187.068083,12.2690098 C187.068083,12.2690098 187.068083,12.314656 187.112048,12.314656 L187.156194,12.314656 L187.200159,12.314656 C187.244125,12.314656 187.244125,12.314656 187.28827,12.3601158 L187.376381,12.3601158 C187.420347,12.4057619 187.420347,12.4057619 187.464312,12.4057619 C188.08091,12.6338063 188.56525,13.1800694 188.741472,13.8176248 L193.322708,26.4338433 L197.948089,13.7265188 C198.388464,12.5427003 199.621478,11.9504185 200.767283,12.4057619 C201.868041,12.8158319 202.440492,14.1367751 202.044263,15.3205936" id="Fill-11" fill="#0163b4"></path>
                    <path d="M208.079619,21.3329904 L220.809237,21.3329904 C219.884521,18.1444683 217.065327,16.6869593 214.422355,16.6869593 C211.471265,16.6869593 209.004335,18.6456442 208.079619,21.3329904 M225.478583,23.6100804 C225.478583,24.8399176 224.509902,25.8418968 223.275987,25.8418968 L208.079619,25.8418968 C209.004335,28.5747029 211.471265,30.5330151 214.422355,30.5330151 C215.435182,30.5330151 217.241549,30.4420955 219.356035,29.0300463 C220.368862,28.3466585 221.734673,28.9845865 222.26316,30.0776717 C222.791646,31.2160303 222.219194,32.4004077 221.205466,33.0837956 C218.298342,35.0875676 216.0525,35.0421078 214.422355,35.0421078 C208.299807,35.0421078 203.366127,29.8952734 203.366127,23.6100804 C203.366127,17.2794275 208.299807,12.1780529 214.422355,12.1780529 C219.752264,12.1780529 225.478583,16.186156 225.478583,23.6100804" id="Fill-13" fill="#0163b4"></path>
                    <path d="M233.276197,21.3329904 L246.005815,21.3329904 C245.081099,18.1444683 242.261905,16.6869593 239.618933,16.6869593 C236.667843,16.6869593 234.200913,18.6456442 233.276197,21.3329904 M250.675161,23.6100804 C250.675161,24.8399176 249.70648,25.8418968 248.472565,25.8418968 L233.276197,25.8418968 C234.200913,28.5747029 236.667843,30.5330151 239.618933,30.5330151 C240.63176,30.5330151 242.438127,30.4420955 244.552613,29.0300463 C245.56544,28.3466585 246.931432,28.9845865 247.459738,30.0776717 C247.988224,31.2160303 247.415772,32.4004077 246.402045,33.0837956 C243.49492,35.0875676 241.249078,35.0421078 239.618933,35.0421078 C233.496385,35.0421078 228.562705,29.8952734 228.562705,23.6100804 C228.562705,17.2794275 233.496385,12.1780529 239.618933,12.1780529 C244.948843,12.1780529 250.675161,16.186156 250.675161,23.6100804" id="Fill-15" fill="#0163b4"></path>
                    <g id="Group-19" transform="translate(253.702236, 12.082066)">
                        <mask id="mask-2" fill="white">
                            <use xlink:href="#path-1"></use>
                        </mask>
                        <g id="Clip-18"></g>
                        <path d="M22.1687104,11.5279775 L22.1687104,20.6825423 C22.1687104,21.9578394 21.2000292,22.9600049 19.9661137,22.9600049 C18.7770647,22.9600049 17.8083834,21.9578394 17.8083834,20.6825423 L17.8083834,11.5279775 C17.8083834,7.70245891 14.8131474,4.60485643 11.1124823,4.60485643 C7.41271807,4.60485643 4.41748208,7.70245891 4.41748208,11.5279775 L4.41748208,20.6825423 C4.41748208,21.9578394 3.44862063,22.9600049 2.21488539,22.9600049 C1.02583634,22.9600049 0.0562541464,21.9578394 0.0562541464,20.6825423 L0.0562541464,11.5279775 C0.0562541464,5.1973246 5.03389923,0.0959500348 11.1124823,0.0959500348 C17.1910653,0.0959500348 22.1687104,5.1973246 22.1687104,11.5279775" id="Fill-17" fill="#0163b4" mask="url(#mask-2)"></path>
                    </g>
                    <path d="M30.5198925,21.9016854 L18.5895809,21.9016854 C17.4147666,21.9016854 16.4626624,20.9172194 16.4626624,19.7024733 C16.4626624,18.4875409 17.4147666,17.5030749 18.5895809,17.5030749 L29.381656,17.5030749 L31.2132492,14.6629539 C31.8646225,13.6525907 33.1848471,13.3794592 34.1627179,14.0529725 C35.1402283,14.7264859 35.4045615,16.0925163 34.7526477,17.1026931 L32.2896819,20.9222498 C31.8948938,21.5339079 31.2310876,21.9016854 30.5198925,21.9016854" id="Fill-20" fill="#0163b4"></path>
                    <path d="M12.3947417,33.6111854 C11.9893226,33.6111854 11.5797593,33.4917602 11.2170444,33.2417312 C10.239534,32.5682178 9.97520075,31.2021874 10.6271146,30.1920106 L13.0900804,26.3715224 C13.4843279,25.7598642 14.1486746,25.3922731 14.8598697,25.3922731 L26.7901814,25.3922731 C27.9649957,25.3922731 28.9170998,26.3767391 28.9170998,27.5914852 C28.9170998,28.8062312 27.9649957,29.7906972 26.7901814,29.7906972 L15.9981063,29.7906972 L14.1665131,32.6317498 C13.7569497,33.2676284 13.0823324,33.6111854 12.3947417,33.6111854" id="Fill-22" fill="#0163b4"></path>
                    <g id="Group-26" transform="translate(0.000000, 0.158178)">
                        <mask id="mask-4" fill="white">
                            <use xlink:href="#path-3"></use>
                        </mask>
                        <g id="Clip-25"></g>
                        <path d="M22.6898991,4.4266502 C12.5243316,4.4266502 4.25396306,12.9781272 4.25396306,23.4892206 C4.25396306,34.000314 12.5243316,42.551791 22.6898991,42.551791 C32.8554667,42.551791 41.1258352,34.000314 41.1258352,23.4892206 C41.1258352,12.9781272 32.8554667,4.4266502 22.6898991,4.4266502 M22.6898991,46.9504014 C10.1788472,46.9504014 -5.4055874e-05,36.425521 -5.4055874e-05,23.4892206 C-5.4055874e-05,10.5529202 10.1788472,0.0280397674 22.6898991,0.0280397674 C35.2009511,0.0280397674 45.3798524,10.5529202 45.3798524,23.4892206 C45.3798524,36.425521 35.2009511,46.9504014 22.6898991,46.9504014" id="Fill-24" fill="#0163b4" mask="url(#mask-4)"></path>
                    </g>
                </g>
            </g>
        </g>
    </g>
</svg>